<svg width="20.000000" height="21.000000" viewBox="0 0 20 21" fill="none" xmlns="http://www.w3.org/2000/svg" xmlns:xlink="http://www.w3.org/1999/xlink">
	<desc>
			Created with Pixso.
	</desc>
	<defs/>
	<path id="icon" d="M14.76 20.72C12.74 20.21 8.6 18.79 4.86 15.04C1.11 11.29 -0.32 7.15 -0.83 5.13C-1.12 3.97 -0.59 2.85 0.29 2.22L2.62 0.55C3.98 -0.42 5.88 -0.09 6.83 1.29L8.3 3.4C8.92 4.3 8.71 5.54 7.82 6.17L6.65 7.01C6.82 7.68 7.37 9.07 9.1 10.79C10.82 12.52 12.21 13.07 12.89 13.24L13.72 12.08C14.36 11.19 15.59 10.97 16.49 11.59L18.6 13.06C19.98 14.01 20.31 15.91 19.34 17.27L17.68 19.6C17.04 20.49 15.92 21.01 14.76 20.72ZM6.27 13.62C9.68 17.03 13.44 18.33 15.25 18.78C15.51 18.85 15.83 18.74 16.05 18.44L17.71 16.11C18.04 15.65 17.93 15.02 17.47 14.7L15.35 13.24L14.45 14.49C14.09 15.01 13.41 15.41 12.62 15.24C11.64 15.03 9.82 14.34 7.68 12.21C5.55 10.07 4.87 8.25 4.66 7.27C4.49 6.48 4.89 5.81 5.4 5.44L6.65 4.54L5.19 2.43C4.87 1.97 4.24 1.86 3.78 2.18L1.46 3.84C1.15 4.06 1.05 4.38 1.11 4.65C1.57 6.45 2.86 10.21 6.27 13.62Z" fill="#151618" fill-opacity="1.000000" fill-rule="evenodd"/>
</svg>
