<svg width="20.000000" height="20.000000" viewBox="0 0 20 20" fill="none" xmlns="http://www.w3.org/2000/svg" xmlns:xlink="http://www.w3.org/1999/xlink">
	<desc>
			Created with Pixso.
	</desc>
	<defs>
		<clipPath id="clip1_142">
			<rect width="20.000000" height="20.000000" fill="white" fill-opacity="0"/>
		</clipPath>
	</defs>
	<g clip-path="url(#clip1_142)">
		<path d="M17.26 5.8C16.73 2.06 13 0.19 9.06 0.66C5.93 1 2.79 3.53 2.66 7.13C2.59 9.33 3.19 11 5.33 11.46C6.26 9.86 5.06 9.53 4.86 8.33C4.06 3.53 10.4 0.33 13.66 3.66C15.93 6 14.46 13.06 10.8 12.33C7.26 11.6 12.53 6 9.73 4.86C7.46 3.93 6.26 7.59 7.33 9.46C6.66 12.6 5.33 15.53 5.86 19.46C7.66 18.13 8.26 15.66 8.73 13.06C9.59 13.6 10.13 14.2 11.26 14.26C15.46 14.6 17.79 10 17.26 5.8Z" fill="#000000" fill-opacity="1.000000" fill-rule="nonzero"/>
	</g>
</svg>
