<svg width="65.000000" height="64.000000" viewBox="0 0 65 64" fill="none" xmlns="http://www.w3.org/2000/svg" xmlns:xlink="http://www.w3.org/1999/xlink">
	<desc>
			Created with Pixso.
	</desc>
	<defs/>
	<path id="Vector" d="M32 1.98C33.13 1.98 34.24 2.24 35.23 2.74L60.28 15.45C60.8 15.71 61.23 16.1 61.54 16.57C61.84 17.03 62 17.57 62 18.11L62 43.18C61.99 44.26 61.68 45.33 61.07 46.26C60.47 47.2 59.6 47.97 58.57 48.5L35.23 60.34C34.24 60.84 33.13 61.1 32 61.1C30.86 61.1 29.75 60.84 28.76 60.34L5.42 48.5C4.39 47.97 3.52 47.2 2.92 46.26C2.31 45.33 2 44.26 2 43.18L2 18.11C2 17.57 2.15 17.03 2.45 16.57C2.76 16.1 3.19 15.71 3.71 15.45L28.76 2.74C29.75 2.24 30.86 1.98 32 1.98Z" stroke="#754E29" stroke-opacity="1.000000" stroke-width="4.166667" stroke-linejoin="round"/>
	<path id="Vector" d="M2 16.32L32 31.54L62 16.32M32 31.54L32 " stroke="#754E29" stroke-opacity="1.000000" stroke-width="4.166667" stroke-linejoin="round"/>
	<path id="Vector" d="M17 23.93L47 8.71M12 32.54L22 " stroke="#754E29" stroke-opacity="1.000000" stroke-width="4.166667" stroke-linejoin="round"/>
</svg>
