<svg width="18.399994" height="14.933350" viewBox="0 0 18.4 14.9333" fill="none" xmlns="http://www.w3.org/2000/svg" xmlns:xlink="http://www.w3.org/1999/xlink">
	<desc>
			Created with Pixso.
	</desc>
	<defs/>
	<path id="Vector" d="M16.53 3.73C16.53 3.86 16.53 4.06 16.53 4.19C16.53 9.19 12.73 14.93 5.8 14.93C3.66 14.93 1.66 14.33 0 13.26C0.26 13.26 0.6 13.33 0.93 13.33C2.73 13.33 4.33 12.73 5.6 11.73C3.93 11.73 2.53 10.6 2.06 9.13C2.26 9.19 2.53 9.19 2.8 9.19C3.13 9.19 3.46 9.13 3.8 9.06C2.06 8.66 0.73 7.13 0.73 5.33C0.73 5.33 0.73 5.33 0.73 5.26C1.26 5.53 1.8 5.73 2.46 5.73C1.46 5.06 0.8 3.93 0.8 2.59C0.8 1.93 1 1.26 1.33 0.73C3.2 3 6 4.53 9.13 4.66C9.06 4.4 9.06 4.13 9.06 3.8C9.06 1.73 10.73 0 12.86 0C13.93 0 14.93 0.46 15.6 1.19C16.46 1 17.26 0.73 18 0.26C17.73 1.13 17.13 1.86 16.33 2.33C17 2.26 17.73 2.06 18.4 1.8C17.86 2.53 17.26 3.19 16.53 3.73Z" fill="#000000" fill-opacity="1.000000" fill-rule="nonzero"/>
</svg>
