<svg width="20.000000" height="20.000000" viewBox="0 0 20 20" fill="none" xmlns="http://www.w3.org/2000/svg" xmlns:xlink="http://www.w3.org/1999/xlink">
	<desc>
			Created with Pixso.
	</desc>
	<defs>
		<clipPath id="clip1_133">
			<rect width="20.000000" height="20.000000" fill="white" fill-opacity="0"/>
		</clipPath>
	</defs>
	<g clip-path="url(#clip1_133)">
		<path d="M17.33 0.66L3.33 0.66C2.19 0.66 1.33 1.53 1.33 2.66L1.33 16.66C1.33 17.79 2.19 18.66 3.33 18.66L10.33 18.66L10.33 11.66L8.33 11.66L8.33 9.2L10.33 9.2L10.33 7.13C10.33 5 11.53 3.46 14.06 3.46L15.86 3.46L15.86 6.06L14.66 6.06C13.66 6.06 13.26 6.8 13.26 7.53L13.26 9.2L15.86 9.2L15.33 11.66L13.33 11.66L13.33 18.66L17.33 18.66C18.46 18.66 19.33 17.79 19.33 16.66L19.33 2.66C19.33 1.53 18.46 0.66 17.33 0.66Z" fill="#000000" fill-opacity="1.000000" fill-rule="nonzero"/>
	</g>
</svg>
