<svg width="20.000000" height="20.000000" viewBox="0 0 20 20" fill="none" xmlns="http://www.w3.org/2000/svg" xmlns:xlink="http://www.w3.org/1999/xlink">
	<desc>
			Created with Pixso.
	</desc>
	<defs>
		<clipPath id="clip1_159">
			<rect width="20.000000" height="20.000000" fill="white" fill-opacity="0"/>
		</clipPath>
	</defs>
	<g clip-path="url(#clip1_159)">
		<path d="M14.6 7.59C14.6 7.59 13.13 12.26 13 12.6C12.93 12.2 11.86 3.86 11.86 3.86C9.33 3.86 7.99 5.66 7.26 7.53C7.26 7.53 5.46 12.2 5.33 12.6C5.33 12.26 5.06 7.59 5.06 7.59C4.93 5.26 2.79 3.86 1.06 3.86L3.13 16.46C5.79 16.46 7.19 14.66 7.93 12.8C7.93 12.8 9.53 8.66 9.59 8.53C9.59 8.73 10.73 16.53 10.73 16.53C13.4 16.53 14.8 14.86 15.6 13L19.33 3.86C16.73 3.86 15.33 5.66 14.6 7.59Z" fill="#000000" fill-opacity="1.000000" fill-rule="nonzero"/>
	</g>
</svg>
