<svg width="147.968750" height="129.437500" viewBox="0 0 147.969 129.438" fill="none" xmlns="http://www.w3.org/2000/svg" xmlns:xlink="http://www.w3.org/1999/xlink">
	<desc>
			Created with Pixso.
	</desc>
	<defs>
		<filter id="filter_5_77_dd" x="0.000000" y="0.000000" width="147.968750" height="129.437500" filterUnits="userSpaceOnUse" color-interpolation-filters="sRGB">
			<feFlood flood-opacity="0" result="BackgroundImageFix"/>
			<feColorMatrix in="SourceAlpha" type="matrix" values="0 0 0 0 0 0 0 0 0 0 0 0 0 0 0 0 0 0 127 0" result="hardAlpha"/>
			<feOffset dx="0" dy="4"/>
			<feGaussianBlur stdDeviation="1.33333"/>
			<feComposite in2="hardAlpha" operator="out" k2="-1" k3="1"/>
			<feColorMatrix type="matrix" values="0 0 0 0 0 0 0 0 0 0 0 0 0 0 0 0 0 0 0.25 0"/>
			<feBlend mode="normal" in2="BackgroundImageFix" result="effect_dropShadow_1"/>
			<feBlend mode="normal" in="SourceGraphic" in2="effect_dropShadow_1" result="shape"/>
		</filter>
		<clipPath id="clip5_77">
			<rect id="svg" rx="-0.500000" width="138.968750" height="120.437500" transform="translate(4.500000 0.500000)" fill="white" fill-opacity="0"/>
		</clipPath>
	</defs>
	<g filter="url(#filter_5_77_dd)">
		<g clip-path="url(#clip5_77)">
			<path id="Vector" d="M4.02 108.18C4.03 108.24 4.04 108.29 4.07 108.33C4.07 108.37 4.08 108.4 4.09 108.42L11.37 121.04L11.4 121.07C11.42 121.1 11.45 121.13 11.47 121.16C11.51 121.2 11.55 121.23 11.59 121.27C11.62 121.29 11.63 121.32 11.66 121.33C11.67 121.34 11.69 121.34 11.7 121.34C11.81 121.4 11.93 121.43 12.05 121.43L135.89 121.43C136.01 121.43 136.13 121.4 136.24 121.34C136.27 121.32 136.29 121.3 136.32 121.28C136.4 121.23 136.47 121.16 136.52 121.08C136.53 121.06 136.55 121.05 136.57 121.03L143.85 108.41C143.86 108.4 143.86 108.38 143.87 108.37C143.89 108.34 143.91 108.31 143.91 108.27C143.92 108.24 143.93 108.2 143.94 108.17C143.95 108.14 143.96 108.11 143.95 108.07C143.95 108.05 143.96 108.04 143.96 108.02C143.96 108 143.95 107.99 143.95 107.97C143.95 107.95 143.94 107.9 143.94 107.87C143.94 107.84 143.92 107.8 143.91 107.77C143.9 107.74 143.89 107.71 143.87 107.67C143.86 107.66 143.86 107.64 143.85 107.63L81.94 0.39C81.92 0.36 81.9 0.34 81.88 0.32C81.85 0.27 81.81 0.23 81.77 0.2C81.69 0.14 81.61 0.09 81.52 0.05C81.47 0.03 81.42 0.02 81.36 0.02C81.33 0.02 81.3 0 81.26 0L66.7 0C66.68 0 66.67 0.01 66.65 0.01C66.63 0.01 66.58 0.02 66.55 0.02L66.44 0.05C66.4 0.06 66.37 0.07 66.34 0.09C66.33 0.09 66.31 0.1 66.3 0.1C66.29 0.11 66.27 0.12 66.26 0.13C66.23 0.14 66.2 0.16 66.18 0.19C66.15 0.21 66.12 0.24 66.1 0.27C66.08 0.3 66.06 0.32 66.04 0.35C66.02 0.36 66.01 0.37 66.01 0.39L4.08 107.64C4.07 107.67 4.06 107.7 4.06 107.73C4.03 107.78 4.02 107.83 4.01 107.88C4 107.93 3.99 107.98 4 108.03C4.01 108.08 4.01 108.13 4.02 108.18ZM80.81 1.57L141.82 107.24L35.28 107.24L41.65 96.21L121.34 96.21C121.46 96.21 121.59 96.17 121.69 96.11C121.7 96.1 121.72 96.11 121.73 96.1C121.76 96.08 121.78 96.06 121.8 96.04C121.84 96 121.88 95.97 121.92 95.93C121.95 95.89 121.98 95.85 122 95.81C122.03 95.77 122.05 95.72 122.06 95.68C122.08 95.63 122.09 95.57 122.09 95.52C122.09 95.49 122.11 95.46 122.11 95.42C122.11 95.4 122.1 95.39 122.1 95.37C122.1 95.32 122.09 95.27 122.07 95.22C122.06 95.17 122.04 95.12 122.02 95.07C122.01 95.06 122.01 95.04 122 95.03L68.05 1.57L80.81 1.57ZM135.45 119.86L13.42 119.86L66.7 27.58L73.07 38.62L33.23 107.63C33.22 107.65 33.22 107.66 33.22 107.67C33.2 107.72 33.18 107.77 33.17 107.82C33.15 107.87 33.14 107.92 33.14 107.97C33.14 107.99 33.13 108 33.13 108.02C33.13 108.04 33.15 108.08 33.15 108.12C33.15 108.18 33.16 108.23 33.18 108.28C33.2 108.33 33.22 108.37 33.24 108.41C33.26 108.46 33.29 108.5 33.32 108.53C33.36 108.57 33.4 108.6 33.44 108.64C33.47 108.66 33.48 108.69 33.51 108.7C33.52 108.71 33.54 108.7 33.55 108.71C33.65 108.77 33.77 108.81 33.9 108.81L141.8 108.81L135.45 119.86ZM105.41 94.64L42.55 94.64L73.98 40.2L105.41 94.64ZM66.7 2.36L119.97 94.64L107.23 94.64L67.39 25.62C67.37 25.61 67.36 25.6 67.36 25.58C67.33 25.54 67.29 25.5 67.26 25.46C67.22 25.42 67.18 25.39 67.14 25.36C67.12 25.35 67.11 25.34 67.1 25.33C67.07 25.32 67.04 25.31 67.01 25.3C66.96 25.28 66.91 25.26 66.86 25.25C66.76 25.24 66.66 25.24 66.56 25.25C66.51 25.26 66.46 25.28 66.41 25.3C66.38 25.31 66.35 25.32 66.32 25.33C66.31 25.34 66.29 25.35 66.28 25.36C66.24 25.39 66.2 25.43 66.16 25.46C66.12 25.49 66.08 25.53 66.06 25.58C66.04 25.59 66.03 25.61 66.03 25.62L12.07 119.08L5.69 108.04L66.7 2.36Z" fill="#FFFFFF" fill-opacity="1.000000" fill-rule="nonzero"/>
		</g>
	</g>
</svg>
